<svg width="12" height="12" viewBox="0 0 12 12" fill="none" xmlns="http://www.w3.org/2000/svg">
  <path
    d="M4.44336 11.293C4.80794 11.293 5.08822 11.1449 5.28418 10.8486L11.3545 1.43555C11.4229 1.32617 11.473 1.22135 11.5049 1.12109C11.5368 1.02083 11.5527 0.92513 11.5527 0.833984C11.5527 0.587891 11.4753 0.38737 11.3203 0.232422C11.1654 0.077474 10.9648 0 10.7188 0C10.5456 0 10.3997 0.0341797 10.2812 0.102539C10.1673 0.170898 10.0579 0.287109 9.95312 0.451172L4.41602 9.23535L1.57227 5.6123C1.38086 5.36165 1.14388 5.23633 0.861328 5.23633C0.610677 5.23633 0.40332 5.31608 0.239258 5.47559C0.0797526 5.63509 0 5.83561 0 6.07715C0 6.18652 0.0205078 6.29362 0.0615234 6.39844C0.102539 6.4987 0.16862 6.60352 0.259766 6.71289L3.60254 10.8691C3.83496 11.1517 4.11523 11.293 4.44336 11.293Z"
    fill="#0000FF" />
</svg>