<svg width="92" height="92" viewBox="0 0 92 92" fill="none" xmlns="http://www.w3.org/2000/svg">
<path d="M64.2825 45.7925L87.7425 22.3325C92.8525 17.2225 92.8525 8.9425 87.7425 3.8325C82.6325 -1.2775 74.3525 -1.2775 69.2425 3.8325L45.7825 27.2925L22.3325 3.8325C17.2225 -1.2775 8.9425 -1.2775 3.8325 3.8325C-1.2775 8.9425 -1.2775 17.2325 3.8325 22.3325L27.2925 45.7925L3.8325 69.2425C-1.2775 74.3525 -1.2775 82.6325 3.8325 87.7425C6.3925 90.3025 9.7325 91.5725 13.0825 91.5725C16.4325 91.5725 19.7725 90.2925 22.3325 87.7425L45.7925 64.2825L69.2525 87.7425C71.8125 90.3025 75.1525 91.5725 78.5025 91.5725C81.8525 91.5725 85.1925 90.2925 87.7525 87.7425C92.8625 82.6325 92.8625 74.3525 87.7525 69.2425L64.2925 45.7825L64.2825 45.7925Z" fill="#5C00E2"/>
</svg>
