<?xml version="1.0" encoding="UTF-8"?>
<svg width="1200pt" height="1200pt" version="1.1" viewBox="0 0 1200 1200" xmlns="http://www.w3.org/2000/svg">
 <path d="m513.33 267.48c90.035 0 141.28 17.723 183.02 34.953 37.906 15.645 67.047 30.055 115.25 32.586 0.24219-7.7539 7.3555-14.637 15.113-14.637h90.688c7.9141 0 15.113 7.2031 15.113 15.113v302.29c0 7.9141-7.1992 15.113-15.113 15.113h-90.688c-6.582 0-12.895-4.7539-14.641-11.102-20.543 7.9258-47.598 26.078-63.527 49.598l-158.7 234.27c-2.7109 4.1484-7.5625 6.8008-12.516 6.8477-22.402 0-40.664-12.316-51.719-28.34-11.055-16.02-16.293-35.617-16.293-54.789 0-43.324 22.68-84.551 38.965-119.26v-0.22656c0.074219-0.15234 0.16797-0.30078 0.23438-0.45313 5.5664-13.777 4.6797-31.793-2.832-45.344-7.6328-13.77-20.582-23.617-43.926-23.617h-166.26c-17.227 0-33.941-3.9961-46.996-14.168-13.055-10.172-21.02-26.875-21.02-46.289 0-18.25 8.582-34.234 21.492-45.344-12.527-10.551-21.492-25.824-21.492-45.344 0-18.539 8.4102-34.273 20.781-45.109-11.883-9.8984-20.781-25.957-20.781-45.578 0-18.816 7.6836-35.52 20.547-45.82 6.375-5.0938 13.578-8.7227 21.492-11.094-6.8906-9.8164-11.809-20.949-11.809-33.773 0-33.23 27.227-60.457 60.457-60.457h155.16zm388.96 83.129h-60.457v272.06h60.457z" fill="#5b00e2"/>
</svg>
