<svg width="150" height="148" viewBox="0 0 150 148" fill="none" xmlns="http://www.w3.org/2000/svg">
<path d="M75.4418 12.51C81.8818 12.51 88.2318 13.89 94.1518 16.79C119.462 29.19 127.462 64.78 112.022 96.28C111.312 97.73 110.552 99.13 109.772 100.51C109.842 100.42 109.922 100.33 109.992 100.24C109.902 100.35 109.822 100.46 109.742 100.57C109.202 101.53 108.632 102.47 108.062 103.4C107.802 104.3 107.752 105.27 107.922 106.3C108.282 108.44 109.852 109.94 111.102 110.83C118.892 115.24 127.852 117.48 136.782 118.17C135.282 119.74 133.792 121.32 131.972 122.28C123.812 128.45 114.082 131.68 104.222 131.68C97.5018 131.68 90.7218 130.18 84.3418 127.09C75.6418 132.3 66.1918 135.14 56.9418 135.14C50.5018 135.14 44.1618 133.77 38.2518 130.87C12.9418 118.46 4.94176 82.87 20.3818 51.37C32.2018 27.24 54.3518 12.5 75.4418 12.51ZM75.4418 0C48.8218 0 22.8018 18 9.15176 45.87C0.431764 63.65 -2.16824 83.24 1.83176 101.02C3.85176 110 7.44176 118.07 12.5018 125.01C17.9018 132.41 24.7118 138.16 32.7418 142.09C40.2518 145.77 48.3918 147.64 56.9418 147.64C66.3518 147.64 75.9518 145.33 85.0518 140.91C91.2218 143.08 97.6418 144.18 104.222 144.18C116.712 144.18 128.662 140.23 138.842 132.75C141.932 130.9 144.162 128.54 145.842 126.78C149.172 123.28 150.182 118.19 148.462 113.68C146.732 109.18 142.572 106.07 137.762 105.69C132.362 105.27 127.322 104.19 122.882 102.53C123.012 102.28 123.132 102.02 123.262 101.78C131.972 84 134.572 64.41 130.582 46.62C128.562 37.64 124.972 29.57 119.902 22.63C114.502 15.23 107.692 9.48 99.6618 5.55C92.1418 1.87 83.9918 0 75.4418 0Z" fill="#5C00E2"/>
<path d="M89.4018 64.4399H47.6018C44.5518 64.4399 42.0818 61.9699 42.0818 58.9199C42.0818 55.8699 44.5518 53.3999 47.6018 53.3999H89.3918C92.4418 53.3999 94.9118 55.8699 94.9118 58.9199C94.9118 61.9699 92.4418 64.4399 89.3918 64.4399H89.4018Z" fill="#5C00E2"/>
<path d="M72.3917 91.6499H43.7217C40.6717 91.6499 38.2017 89.1799 38.2017 86.1299C38.2017 83.0799 40.6717 80.6099 43.7217 80.6099H72.3917C75.4417 80.6099 77.9117 83.0799 77.9117 86.1299C77.9117 89.1799 75.4417 91.6499 72.3917 91.6499Z" fill="#5C00E2"/>
</svg>
